<svg height="64" viewBox="0 0 64.000005 63.999999" style="background-color:black" width="64" xmlns="http://www.w3.org/2000/svg"><g fill="#FFFFFF" stroke-width=".172563" transform="matrix(5.3440923 0 0 5.3440923 -72.14965 -118.02575)"><path d="m18.971019 32.853173-3.50302-7.299396c-.845556.776532-1.3805 1.880932-1.3805 3.123382 0 2.329595 1.898188 4.227783 4.227782 4.227783.224332 0 .431407-.01726.655738-.05177"/><path d="m17.53875 24.518402c.258844-.05177.517688-.06902.776531-.06902 2.329595 0 4.227783 1.898188 4.227783 4.227782 0 1.276963-.569456 2.433132-1.484038 3.209664l1.035375 2.174288c1.691113-1.190682 2.795514-3.157895 2.795514-5.383952.01726-3.64107-2.933564-6.591889-6.574634-6.591889-.621225 0-1.24245.08628-1.811906.258844z"/></g></svg>